/usr/bin/start-video-rec.sh: line 69: kill: (905) - No such process
ffmpeg version 2.8.15-0ubuntu0.16.04.1 Copyright (c) 2000-2018 the FFmpeg developers
  built with gcc 5.4.0 (Ubuntu 5.4.0-6ubuntu1~16.04.10) 20160609
  configuration: --prefix=/usr --extra-version=0ubuntu0.16.04.1 --build-suffix=-ffmpeg --toolchain=hardened --libdir=/usr/lib/x86_64-linux-gnu --incdir=/usr/include/x86_64-linux-gnu --cc=cc --cxx=g++ --enable-gpl --enable-shared --disable-stripping --disable-decoder=libopenjpeg --disable-decoder=libschroedinger --enable-avresample --enable-avisynth --enable-gnutls --enable-ladspa --enable-libass --enable-libbluray --enable-libbs2b --enable-libcaca --enable-libcdio --enable-libflite --enable-libfontconfig --enable-libfreetype --enable-libfribidi --enable-libgme --enable-libgsm --enable-libmodplug --enable-libmp3lame --enable-libopenjpeg --enable-libopus --enable-libpulse --enable-librtmp --enable-libschroedinger --enable-libshine --enable-libsnappy --enable-libsoxr --enable-libspeex --enable-libssh --enable-libtheora --enable-libtwolame --enable-libvorbis --enable-libvpx --enable-libwavpack --enable-libwebp --enable-libx265 --enable-libxvid --enable-libzvbi --enable-openal --enable-opengl --enable-x11grab --enable-libdc1394 --enable-libiec61883 --enable-libzmq --enable-frei0r --enable-libx264 --enable-libopencv
  libavutil      54. 31.100 / 54. 31.100
  libavcodec     56. 60.100 / 56. 60.100
  libavformat    56. 40.101 / 56. 40.101
  libavdevice    56.  4.100 / 56.  4.100
  libavfilter     5. 40.101 /  5. 40.101
  libavresample   2.  1.  0 /  2.  1.  0
  libswscale      3.  1.101 /  3.  1.101
  libswresample   1.  2.101 /  1.  2.101
  libpostproc    53.  3.100 / 53.  3.100
Input #0, matroska,webm, from '/home/seluser/videos/vid_chrome_or_firefox_40003.mkv':
  Metadata:
    ENCODER         : Lavf56.40.101
  Duration: 00:00:12.10, start: 0.000000, bitrate: 91 kb/s
    Stream #0:0: Video: h264 (Constrained Baseline), yuv420p, 1920x1080, SAR 1:1 DAR 16:9, 10 fps, 10 tbr, 1k tbn, 20 tbc (default)
    Metadata:
      ENCODER         : Lavc56.60.100 libx264
      DURATION        : 00:00:12.100000000
[libx264 @ 0xa8bc40] using SAR=1/1
[libx264 @ 0xa8bc40] using cpu capabilities: MMX2 SSE2Fast SSSE3 SSE4.2 AVX FMA3 AVX2 LZCNT BMI2
[libx264 @ 0xa8bc40] profile Constrained Baseline, level 4.0
[libx264 @ 0xa8bc40] 264 - core 148 r2643 5c65704 - H.264/MPEG-4 AVC codec - Copyleft 2003-2015 - http://www.videolan.org/x264.html - options: cabac=0 ref=1 deblock=0:0:0 analyse=0:0 me=dia subme=0 psy=1 psy_rd=1.00:0.00 mixed_ref=0 me_range=16 chroma_me=1 trellis=0 8x8dct=0 cqm=0 deadzone=21,11 fast_pskip=1 chroma_qp_offset=0 threads=3 lookahead_threads=1 sliced_threads=0 nr=0 decimate=1 interlaced=0 bluray_compat=0 constrained_intra=0 bframes=0 weightp=0 keyint=250 keyint_min=10 scenecut=0 intra_refresh=0 rc=crf mbtree=0 crf=23.0 qcomp=0.60 qpmin=0 qpmax=69 qpstep=4 ip_ratio=1.40 aq=0
Output #0, mp4, to '/home/seluser/videos/vid_chrome_or_firefox_40003.mp4':
  Metadata:
    encoder         : Lavf56.40.101
    Stream #0:0: Video: h264 (libx264) ([33][0][0][0] / 0x0021), yuv420p, 1920x1080 [SAR 1:1 DAR 16:9], q=-1--1, 10 fps, 10240 tbn, 10 tbc (default)
    Metadata:
      DURATION        : 00:00:12.100000000
      encoder         : Lavc56.60.100 libx264
Stream mapping:
  Stream #0:0 -> #0:0 (h264 (native) -> h264 (libx264))
Press [q] to stop, [?] for help
frame=   38 fps=0.0 q=9.0 size=      63kB time=00:00:03.40 bitrate= 151.4kbits/s dup=33 drop=0    
frame=   52 fps= 30 q=9.0 size=      66kB time=00:00:04.80 bitrate= 112.2kbits/s dup=46 drop=0    
frame=   61 fps= 25 q=9.0 size=      68kB time=00:00:05.70 bitrate=  97.2kbits/s dup=54 drop=0    
frame=   66 fps= 23 q=9.0 size=      68kB time=00:00:06.20 bitrate=  89.8kbits/s dup=57 drop=0    
frame=   80 fps= 22 q=9.0 size=      69kB time=00:00:07.60 bitrate=  74.1kbits/s dup=65 drop=0    
frame=   92 fps= 22 q=11.0 size=     108kB time=00:00:08.80 bitrate= 100.7kbits/s dup=73 drop=0    
frame=   96 fps= 20 q=9.0 size=     117kB time=00:00:09.20 bitrate= 104.0kbits/s dup=74 drop=0    
frame=  106 fps= 20 q=9.0 size=     123kB time=00:00:10.20 bitrate=  98.4kbits/s dup=75 drop=0    
frame=  115 fps= 20 q=9.0 size=     128kB time=00:00:11.10 bitrate=  94.2kbits/s dup=75 drop=0    
frame=  120 fps= 19 q=9.0 size=     128kB time=00:00:11.60 bitrate=  90.3kbits/s dup=75 drop=0    
frame=  121 fps= 18 q=-1.0 Lsize=     129kB time=00:00:12.10 bitrate=  87.5kbits/s dup=75 drop=0    
video:128kB audio:0kB subtitle:0kB other streams:0kB global headers:0kB muxing overhead: 0.993658%
[libx264 @ 0xa8bc40] frame I:1     Avg QP:20.00  size: 35852
[libx264 @ 0xa8bc40] frame P:120   Avg QP: 9.39  size:   788
[libx264 @ 0xa8bc40] mb I  I16..4: 100.0%  0.0%  0.0%
[libx264 @ 0xa8bc40] mb P  I16..4:  1.0%  0.0%  0.0%  P16..4:  0.6%  0.0%  0.0%  0.0%  0.0%    skip:98.4%
[libx264 @ 0xa8bc40] coded y,uvDC,uvAC intra: 4.4% 2.1% 1.9% inter: 0.2% 0.2% 0.1%
[libx264 @ 0xa8bc40] i16 v,h,dc,p: 86% 13%  1%  0%
[libx264 @ 0xa8bc40] i8c dc,h,v,p: 86% 11%  3%  0%
[libx264 @ 0xa8bc40] kb/s:86.24
